<svg xmlns="http://www.w3.org/2000/svg" width="224" height="24" viewBox="0 0 24 24">
  <!-- Camera -->
  <path d="M12 7C9.79 7 8 8.79 8 11s1.79 4 4 4 4-1.79 4-4-1.79-4-4-4zm0 6c-1.11 0-2-.89-2-2s.89-2 2-2 2 .89 2 2-.89 2-2 2z"/>

  <!-- Design Pencil -->
  <path d="M17.84 6.63c-.48-.48-1.12-.74-1.82-.74-1.43 0-2.58 1.15-2.58 2.58 0 .7.27 1.34.74 1.82l-8.33 8.33L3 20.69 4.31 22l3.88-3.88 8.33-8.33c.48.48 1.12.74 1.82.74 1.43 0 2.58-1.15 2.58-2.58 0-.7-.27-1.34-.74-1.82l2.45-2.45-1.27-1.27-2.45 2.45zm-5.26 6.23c-.39-.39-.39-1.02 0-1.41l5.15-5.15 1.27 1.27-5.15 5.15c-.39.39-1.02.39-1.41 0l-4.73-4.73c-.39-.39-.39-1.02 0-1.41L9.2 7.1l1.27-1.27-4.73-4.73c-.39-.39-.39-1.02 0-1.41L6.06 0l.7.7L18.36 13l-.7.7-6.48-6.48z"/>

  <!-- Color Filter -->
  <path d="M18.34 6L12 0v4H8c-1.1 0-1.99.9-1.99 2L6 18c0 1.1.9 2 2 2h10c1.1 0 2-.9 2-2V8c0-1.1-.9-2-2-2h-1.66zM12 16c-1.1 0-2-.9-2-2s.9-2 2-2 2 .9 2 2-.9 2-2 2zm4-5h-2.5l1.79-2.5L16 7h4l-2.5 3.5L16 14h2.5l1.79 2.5L20 16z"/>

  <!-- Dev Mode Phone -->
  <path d="M4 14h2v-2H4v2zm0 4h2v-2H4v2zm0-8h2V8H4v2zm0-4h2V4H4v2zm0 16h2v-2H4v2zm0-8h2v-2H4v2zm10-4h2v-2h-2v2zm4 8h2v-2h-2v2zm0-8h2V8h-2v2zm0 12h2v-2h-2v2zm0-8h2V8h-2v2zm-8 4h6v-2H6v2z"/>
</svg>
